<svg width="58" height="58" viewBox="0 0 58 58" fill="none" xmlns="http://www.w3.org/2000/svg">
<circle cx="29" cy="29" r="12" fill="#11639B"/>
<path fill-rule="evenodd" clip-rule="evenodd" d="M48.6123 25.0809C47.6792 20.4112 45.1103 16.2276 41.3681 13.2828L38.0737 17.4692C41.6264 20.2122 43.9148 24.5135 43.9148 29.3492C43.9148 37.6335 37.199 44.3492 28.9148 44.3492C20.6306 44.3492 13.9148 37.6335 13.9148 29.3492C13.9148 21.0649 20.6306 14.3492 28.9148 14.3492C29.1316 14.3492 29.3476 14.3538 29.5622 14.3629L29.7676 9.01475C25.009 8.83195 20.3415 10.3531 16.6045 13.3045C12.8672 16.256 10.3059 20.4441 9.38084 25.1155C8.45603 29.7868 9.22825 34.6349 11.5588 38.7878C13.8891 42.9406 17.625 46.1256 22.0942 47.7699C26.5635 49.4142 31.4726 49.4099 35.9389 47.7577C40.4053 46.1056 44.1355 42.914 46.4585 38.7571C48.7817 34.6001 49.5454 29.7507 48.6123 25.0809Z" fill="#11639B"/>
<path fill-rule="evenodd" clip-rule="evenodd" d="M0.276711 24.5807C-0.288074 28.5699 0.0138794 32.6314 1.16268 36.4976L5.87036 35.1473C5.334 33.1883 5.04794 31.1285 5.04794 29.0031C5.04794 15.9729 15.7992 5.40986 29.0615 5.40986C41.7705 5.40986 52.1735 15.1097 53.0196 27.3854L58 27.1523C57.805 23.1293 56.7446 19.1925 54.8886 15.6014C53.0326 12.0102 50.4233 8.84617 47.2324 6.31773C44.0414 3.78929 40.3415 1.95383 36.3762 0.932266C32.4108 -0.0892938 28.2702 -0.273762 24.2271 0.391015C20.184 1.05579 16.3301 2.55473 12.9194 4.78906C9.50865 7.02339 6.61851 9.94242 4.43935 13.3538C2.2602 16.7652 0.841497 20.5915 0.276711 24.5807Z" fill="#11639B"/>
<path fill-rule="evenodd" clip-rule="evenodd" d="M50.7133 39.6149C46.8567 47.5794 38.5909 53.0847 29.0164 53.0847C22.8033 53.0847 17.1414 50.7664 12.8777 46.9623L9.20654 51.1991C12.6279 54.0608 16.6788 56.1027 21.0402 57.1639C25.4017 58.2252 29.9543 58.2768 34.3395 57.3147C38.7247 56.3526 42.8225 54.4032 46.3102 51.6199C49.7978 48.8366 52.5799 45.2956 54.4372 41.2759L50.7133 39.6149Z" fill="#11639B"/>
</svg>
